<?xml version="1.0" encoding="UTF-8" standalone="no"?>
<!DOCTYPE svg PUBLIC "-//W3C//DTD SVG 1.1//EN"
 "http://www.w3.org/Graphics/SVG/1.1/DTD/svg11.dtd">
<!-- Generated by graphviz version 11.0.0 (20240428.1522)
 -->
<!-- Title: packages_soft&#45;tech Pages: 1 -->
<svg width="865pt" height="116pt"
 viewBox="0.00 0.00 864.88 116.00" xmlns="http://www.w3.org/2000/svg" xmlns:xlink="http://www.w3.org/1999/xlink">
<g id="graph0" class="graph" transform="scale(1 1) rotate(0) translate(4 112)">
<title>packages_soft&#45;tech</title>
<polygon fill="white" stroke="none" points="-4,4 -4,-112 860.88,-112 860.88,4 -4,4"/>
<!-- Info -->
<g id="node1" class="node">
<title>Info</title>
<polygon fill="none" stroke="black" points="256.88,-36 202.88,-36 202.88,0 256.88,0 256.88,-36"/>
<text text-anchor="middle" x="229.88" y="-12.57" font-family="Times New Roman,serif" font-size="14.00">Info</text>
</g>
<!-- hierarchical_clustering -->
<g id="node2" class="node">
<title>hierarchical_clustering</title>
<polygon fill="none" stroke="black" points="139.75,-108 0,-108 0,-72 139.75,-72 139.75,-108"/>
<text text-anchor="middle" x="69.88" y="-84.58" font-family="Times New Roman,serif" font-size="14.00">hierarchical_clustering</text>
</g>
<!-- kmeans_clustering -->
<g id="node3" class="node">
<title>kmeans_clustering</title>
<polygon fill="none" stroke="black" points="276.25,-108 157.5,-108 157.5,-72 276.25,-72 276.25,-108"/>
<text text-anchor="middle" x="216.88" y="-84.58" font-family="Times New Roman,serif" font-size="14.00">kmeans_clustering</text>
</g>
<!-- knn_classification -->
<g id="node4" class="node">
<title>knn_classification</title>
<polygon fill="none" stroke="black" points="409.75,-108 294,-108 294,-72 409.75,-72 409.75,-108"/>
<text text-anchor="middle" x="351.88" y="-84.58" font-family="Times New Roman,serif" font-size="14.00">knn_classification</text>
</g>
<!-- logistic_regression_classification -->
<g id="node5" class="node">
<title>logistic_regression_classification</title>
<polygon fill="none" stroke="black" points="627.75,-108 428,-108 428,-72 627.75,-72 627.75,-108"/>
<text text-anchor="middle" x="527.88" y="-84.58" font-family="Times New Roman,serif" font-size="14.00">logistic_regression_classification</text>
</g>
<!-- Machine_Learning -->
<g id="node6" class="node">
<title>Machine_Learning</title>
<polygon fill="none" stroke="black" points="429.25,-36 274.5,-36 274.5,0 429.25,0 429.25,-36"/>
<text text-anchor="middle" x="351.88" y="-12.57" font-family="Times New Roman,serif" font-size="14.00">Machine_Learning</text>
</g>
<!-- Machine_Learning&#45;&gt;hierarchical_clustering -->
<g id="edge1" class="edge">
<title>Machine_Learning&#45;&gt;hierarchical_clustering</title>
<path fill="none" stroke="black" d="M281.44,-36.48C241.76,-46.33 192.02,-58.68 150.75,-68.93"/>
<polygon fill="black" stroke="black" points="141.08,-71.32 149.7,-64.55 144.75,-70.41 150.79,-68.92 150.79,-68.92 150.79,-68.92 144.75,-70.41 151.87,-73.28 141.08,-71.32"/>
</g>
<!-- Machine_Learning&#45;&gt;kmeans_clustering -->
<g id="edge2" class="edge">
<title>Machine_Learning&#45;&gt;kmeans_clustering</title>
<path fill="none" stroke="black" d="M318.16,-36.48C300.55,-45.61 278.81,-56.89 259.99,-66.65"/>
<polygon fill="black" stroke="black" points="251.24,-71.18 258.05,-62.58 254.6,-69.44 260.12,-66.58 260.12,-66.58 260.12,-66.58 254.6,-69.44 262.19,-70.57 251.24,-71.18"/>
</g>
<!-- Machine_Learning&#45;&gt;knn_classification -->
<g id="edge3" class="edge">
<title>Machine_Learning&#45;&gt;knn_classification</title>
<path fill="none" stroke="black" d="M351.88,-36.3C351.88,-43.68 351.88,-52.48 351.88,-60.75"/>
<polygon fill="black" stroke="black" points="351.88,-70.68 347.38,-60.68 351.88,-66.9 351.88,-60.68 351.88,-60.68 351.88,-60.68 351.88,-66.9 356.38,-60.68 351.88,-70.68"/>
</g>
<!-- Machine_Learning&#45;&gt;logistic_regression_classification -->
<g id="edge4" class="edge">
<title>Machine_Learning&#45;&gt;logistic_regression_classification</title>
<path fill="none" stroke="black" d="M395.83,-36.48C419.44,-45.87 448.75,-57.53 473.75,-67.47"/>
<polygon fill="black" stroke="black" points="483.04,-71.17 472.09,-71.65 479.53,-69.77 473.75,-67.47 473.75,-67.47 473.75,-67.47 479.53,-69.77 475.41,-63.29 483.04,-71.17"/>
</g>
<!-- read_csv -->
<g id="node9" class="node">
<title>read_csv</title>
<polygon fill="none" stroke="black" points="712.38,-108 645.38,-108 645.38,-72 712.38,-72 712.38,-108"/>
<text text-anchor="middle" x="678.88" y="-84.58" font-family="Times New Roman,serif" font-size="14.00">read_csv</text>
</g>
<!-- Machine_Learning&#45;&gt;read_csv -->
<g id="edge5" class="edge">
<title>Machine_Learning&#45;&gt;read_csv</title>
<path fill="none" stroke="black" d="M429.67,-29.16C484.93,-37.36 560.85,-50.63 634.74,-71.65"/>
<polygon fill="black" stroke="black" points="643.99,-74.33 633.13,-75.87 640.35,-73.28 634.38,-71.55 634.38,-71.55 634.38,-71.55 640.35,-73.28 635.63,-67.23 643.99,-74.33"/>
</g>
<!-- 2D_Visualization -->
<g id="node7" class="node">
<title>2D_Visualization</title>
<polygon fill="none" stroke="black" points="834.88,-36 680.88,-36 680.88,0 834.88,0 834.88,-36"/>
<text text-anchor="middle" x="757.88" y="-12.57" font-family="Times New Roman,serif" font-size="14.00">2D_Visualization</text>
</g>
<!-- pca -->
<g id="node8" class="node">
<title>pca</title>
<polygon fill="none" stroke="black" points="784.88,-108 730.88,-108 730.88,-72 784.88,-72 784.88,-108"/>
<text text-anchor="middle" x="757.88" y="-84.58" font-family="Times New Roman,serif" font-size="14.00">pca</text>
</g>
<!-- 2D_Visualization&#45;&gt;pca -->
<g id="edge6" class="edge">
<title>2D_Visualization&#45;&gt;pca</title>
<path fill="none" stroke="black" d="M757.88,-36.3C757.88,-43.68 757.88,-52.48 757.88,-60.75"/>
<polygon fill="black" stroke="black" points="757.88,-70.68 753.38,-60.68 757.88,-66.9 757.88,-60.68 757.88,-60.68 757.88,-60.68 757.88,-66.9 762.38,-60.68 757.88,-70.68"/>
</g>
<!-- 2D_Visualization&#45;&gt;read_csv -->
<g id="edge7" class="edge">
<title>2D_Visualization&#45;&gt;read_csv</title>
<path fill="none" stroke="black" d="M738.35,-36.3C728.76,-44.8 717.03,-55.19 706.54,-64.49"/>
<polygon fill="black" stroke="black" points="699.36,-70.85 703.86,-60.85 702.19,-68.34 706.85,-64.21 706.85,-64.21 706.85,-64.21 702.19,-68.34 709.83,-67.58 699.36,-70.85"/>
</g>
<!-- tsne -->
<g id="node10" class="node">
<title>tsne</title>
<polygon fill="none" stroke="black" points="856.88,-108 802.88,-108 802.88,-72 856.88,-72 856.88,-108"/>
<text text-anchor="middle" x="829.88" y="-84.58" font-family="Times New Roman,serif" font-size="14.00">tsne</text>
</g>
<!-- 2D_Visualization&#45;&gt;tsne -->
<g id="edge8" class="edge">
<title>2D_Visualization&#45;&gt;tsne</title>
<path fill="none" stroke="black" d="M775.67,-36.3C784.24,-44.63 794.67,-54.78 804.09,-63.93"/>
<polygon fill="black" stroke="black" points="811.16,-70.8 800.85,-67.06 808.45,-68.17 803.99,-63.83 803.99,-63.83 803.99,-63.83 808.45,-68.17 807.13,-60.61 811.16,-70.8"/>
</g>
</g>
</svg>