<?xml version="1.0" encoding="UTF-8" standalone="no"?>
<!DOCTYPE svg PUBLIC "-//W3C//DTD SVG 1.1//EN"
 "http://www.w3.org/Graphics/SVG/1.1/DTD/svg11.dtd">
<!-- Generated by graphviz version 11.0.0 (20240428.1522)
 -->
<!-- Title: classes_soft&#45;tech Pages: 1 -->
<svg width="639pt" height="151pt"
 viewBox="0.00 0.00 639.12 151.00" xmlns="http://www.w3.org/2000/svg" xmlns:xlink="http://www.w3.org/1999/xlink">
<g id="graph0" class="graph" transform="scale(1 1) rotate(0) translate(4 147)">
<title>classes_soft&#45;tech</title>
<polygon fill="white" stroke="none" points="-4,4 -4,-147 635.12,-147 635.12,4 -4,4"/>
<!-- hierarchical_clustering.HierachicalClustering -->
<g id="node1" class="node">
<title>hierarchical_clustering.HierachicalClustering</title>
<polygon fill="none" stroke="black" points="0,-0.5 0,-142.5 315.25,-142.5 315.25,-0.5 0,-0.5"/>
<text text-anchor="start" x="98.75" y="-125.2" font-family="Times New Roman,serif" font-size="14.00">HierachicalClustering</text>
<polyline fill="none" stroke="black" points="0,-118.75 315.25,-118.75"/>
<polyline fill="none" stroke="black" points="0,-118.75 315.25,-118.75"/>
<text text-anchor="start" x="8" y="-101.45" font-family="Times New Roman,serif" font-size="14.00">data_preprocess_for_the_clustering_algorithms(data)</text>
<text text-anchor="start" x="8" y="-85.7" font-family="Times New Roman,serif" font-size="14.00">encode_categorical_data(data)</text>
<text text-anchor="start" x="8" y="-69.95" font-family="Times New Roman,serif" font-size="14.00">fill_missing_values(df)</text>
<text text-anchor="start" x="8" y="-54.2" font-family="Times New Roman,serif" font-size="14.00">hierarchical_clustering(data, linkage)</text>
<text text-anchor="start" x="8" y="-38.45" font-family="Times New Roman,serif" font-size="14.00">perform_pca(data)</text>
<text text-anchor="start" x="8" y="-22.7" font-family="Times New Roman,serif" font-size="14.00">remove_duplicates(data)</text>
<text text-anchor="start" x="8" y="-6.95" font-family="Times New Roman,serif" font-size="14.00">remove_outliers_iqr(df, iqr_factor)</text>
</g>
<!-- pca.PCADecomposition -->
<g id="node2" class="node">
<title>pca.PCADecomposition</title>
<polygon fill="none" stroke="black" points="333,-20.12 333,-122.88 462.25,-122.88 462.25,-20.12 333,-20.12"/>
<text text-anchor="start" x="341" y="-105.58" font-family="Times New Roman,serif" font-size="14.00">PCADecomposition</text>
<polyline fill="none" stroke="black" points="333,-99.12 462.25,-99.12"/>
<text text-anchor="start" x="352.62" y="-81.83" font-family="Times New Roman,serif" font-size="14.00">data_frame</text>
<text text-anchor="start" x="352.62" y="-66.08" font-family="Times New Roman,serif" font-size="14.00">n_components</text>
<text text-anchor="start" x="352.62" y="-50.33" font-family="Times New Roman,serif" font-size="14.00">pca : NoneType</text>
<polyline fill="none" stroke="black" points="333,-43.88 462.25,-43.88"/>
<text text-anchor="start" x="356.75" y="-26.57" font-family="Times New Roman,serif" font-size="14.00">perform_pca()</text>
</g>
<!-- tsne.tSNEDecomposition -->
<g id="node3" class="node">
<title>tsne.tSNEDecomposition</title>
<polygon fill="none" stroke="black" points="480.12,-20.12 480.12,-122.88 631.12,-122.88 631.12,-20.12 480.12,-20.12"/>
<text text-anchor="start" x="497.88" y="-105.58" font-family="Times New Roman,serif" font-size="14.00">tSNEDecomposition</text>
<polyline fill="none" stroke="black" points="480.12,-99.12 631.12,-99.12"/>
<text text-anchor="start" x="488.12" y="-81.83" font-family="Times New Roman,serif" font-size="14.00">data_frame</text>
<text text-anchor="start" x="488.12" y="-66.08" font-family="Times New Roman,serif" font-size="14.00">n_components</text>
<text text-anchor="start" x="488.12" y="-50.33" font-family="Times New Roman,serif" font-size="14.00">tsne : NoneType, TSNE</text>
<polyline fill="none" stroke="black" points="480.12,-43.88 631.12,-43.88"/>
<text text-anchor="start" x="509.88" y="-26.57" font-family="Times New Roman,serif" font-size="14.00">perform_tSNE()</text>
</g>
</g>
</svg>